/vscmnt/brussel_pixiu_data/_data_brussel/112/vsc11236/PredSimResults/SUBJ07mtu3D/worker5.mot
version=1
nRows=7
nColumns=50
inDegrees=yes
endheader
                time	         pelvis_tilt	         pelvis_list	     pelvis_rotation	           pelvis_tx	           pelvis_ty	           pelvis_tz	       hip_flexion_r	     hip_adduction_r	      hip_rotation_r	        knee_angle_r	       ankle_angle_r	         mtp_angle_r	       hip_flexion_l	     hip_adduction_l	      hip_rotation_l	        knee_angle_l	       ankle_angle_l	         mtp_angle_l	    lumbar_extension	      lumbar_bending	     lumbar_rotation	 ercspn_r/activation	 intobl_r/activation	 extobl_r/activation	    abd_r/activation	    add_r/activation	hamstrings_r/activation	bifemsh_r/activation	glut_max_r/activation	iliopsoas_r/activation	rect_fem_r/activation	  vasti_r/activation	gastroc_r/activation	 soleus_r/activation	tib_ant_r/activation	 ercspn_l/activation	 intobl_l/activation	 extobl_l/activation	    abd_l/activation	    add_l/activation	hamstrings_l/activation	bifemsh_l/activation	glut_max_l/activation	iliopsoas_l/activation	rect_fem_l/activation	  vasti_l/activation	gastroc_l/activation	 soleus_l/activation	tib_ant_l/activation	
          1.09243079	         -3.38831239	          1.01374338	          8.02878134	          1.33276556	          0.84954705	         -0.01379767	         29.40169698	         -3.16787402	         -4.09701474	         -7.00832104	          3.27539427	          0.26636876	        -15.51939016	          1.29655851	          3.33945276	         -7.73416515	          8.96148901	         25.70259145	        -11.86786019	         -2.43828908	         -1.21961417	          0.12153061	          0.13761754	          0.01000007	          0.02639251	          0.12452991	          0.06400480	          0.15142189	          0.08574523	          0.02794886	          0.01182058	          0.01000001	          0.01651715	          0.01397296	          0.39593006	          0.13268461	          0.01000001	          0.01000002	          0.03424111	          0.01000016	          0.01872368	          0.15669128	          0.01851779	          0.18123395	          0.01000053	          0.01000014	          0.14114885	          0.27126359	          0.01768816	
          1.10335510	         -3.37989838	          1.05454373	          8.04955523	          1.34838433	          0.84806314	         -0.01363998	         29.15109730	         -3.02672644	         -3.68208418	         -8.49153395	          2.97125923	          0.25071582	        -15.98366007	          1.22585812	          3.03287601	         -8.80723021	          8.10430416	         27.30877002	        -11.75419097	         -2.03148885	         -1.44489293	          0.11927910	          0.12300310	          0.01000000	          0.06027641	          0.11235581	          0.06392122	          0.13950821	          0.11823948	          0.02364397	          0.01000001	          0.00999999	          0.01397306	          0.01182074	          0.44795228	          0.14900510	          0.01000000	          0.01000002	          0.02896703	          0.01726861	          0.01583986	          0.13255651	          0.01566554	          0.15331896	          0.01000005	          0.01000000	          0.11940802	          0.25339635	          0.01496369	
          1.11427940	         -3.36982260	          1.10205933	          8.02201498	          1.36405201	          0.84689421	         -0.01337369	         28.85875144	         -2.90146682	         -3.32028633	         -9.86451238	          2.54313035	          0.23803402	        -16.28670337	          1.17360686	          2.69229570	        -10.15899565	          7.10319280	         28.88060923	        -11.64628644	         -1.63359969	         -1.66341537	          0.14006348	          0.10405722	          0.01000001	          0.11854241	          0.13437683	          0.05524635	          0.11802011	          0.13674274	          0.02000214	          0.01000001	          0.01000000	          0.01182083	          0.01000002	          0.48194836	          0.17312974	          0.01000000	          0.01000001	          0.02450531	          0.01745311	          0.01340103	          0.11213915	          0.01325262	          0.12970363	          0.01000015	          0.01000003	          0.10101588	          0.21944620	          0.01265887	
          1.12520371	         -3.35887464	          1.15872435	          7.95132697	          1.37959818	          0.84619353	         -0.01300285	         28.60819440	         -2.77945448	         -3.02284599	        -11.30799900	          2.22643561	          0.21817321	        -16.34936651	          1.14412075	          2.32117825	        -11.90311811	          5.95575855	         30.35025806	        -11.56020682	         -1.24748052	         -1.87445466	          0.15238791	          0.08802953	          0.01000001	          0.16287125	          0.16483131	          0.04771411	          0.09984176	          0.16498465	          0.01692126	          0.01000002	          0.01000001	          0.01000012	          0.01000002	          0.49461194	          0.20852390	          0.01000000	          0.01000001	          0.02073081	          0.03165914	          0.01406372	          0.09486664	          0.01121137	          0.10972570	          0.01000012	          0.01000004	          0.08545664	          0.18564541	          0.01070905	
          1.13612802	         -3.34705241	          1.22374989	          7.84100477	          1.39491586	          0.84606784	         -0.01254050	         28.42604827	         -2.66216016	         -2.78212929	        -12.88249814	          2.14174085	          0.19954018	        -16.10177789	          1.13783441	          1.91492410	        -14.14553959	          4.67753573	         31.58991188	        -11.50079873	         -0.87386835	         -2.07623260	          0.16150588	          0.07447055	          0.01000000	          0.19653412	          0.19380636	          0.04416262	          0.08446338	          0.18421126	          0.01431492	          0.01000002	          0.02556699	          0.01000004	          0.01000003	          0.48752882	          0.24315224	          0.01000000	          0.01000001	          0.01753769	          0.05855571	          0.01189754	          0.08025458	          0.01000000	          0.09282493	          0.01000006	          0.01000000	          0.07229395	          0.15705088	          0.00999999	
          1.14705233	         -3.33506075	          1.29888212	          7.69182502	          1.40995203	          0.84659080	         -0.01200124	         28.26365514	         -2.55135308	         -2.59437385	        -14.48204597	          2.25389100	          0.18398251	        -15.48691809	          1.15499391	          1.46285107	        -16.96833294	          3.27721329	         32.41686350	        -11.46555417	         -0.51726544	         -2.26607130	          0.16844785	          0.06300002	          0.01000000	          0.21218012	          0.21462774	          0.04306506	          0.07145370	          0.19222957	          0.01211003	          0.01000002	          0.04311080	          0.01000007	          0.01000005	          0.46493685	          0.26089545	          0.01000000	          0.01000001	          0.01483640	          0.08707437	          0.01006590	          0.06789319	          0.01000000	          0.07852733	          0.01000003	          0.01000000	          0.06115868	          0.13286069	          0.01000000	
          1.15797664	         -3.32364285	          1.38459448	          7.50543470	          1.42472093	          0.84774547	         -0.01140152	         28.04073395	         -2.44364058	         -2.44170043	        -15.95195633	          2.50491201	          0.17393916	        -14.47685871	          1.18829529	          0.96565063	        -20.40270053	          1.73660468	         32.66162731	        -11.44470415	         -0.17991356	         -2.44116429	          0.16190068	          0.05329627	          0.01000000	          0.21182970	          0.22357511	          0.04398317	          0.06044787	          0.19079939	          0.01024476	          0.01000002	          0.05692397	          0.01000006	          0.01000003	          0.43747151	          0.26703394	          0.01000000	          0.01000001	          0.01255119	          0.10578097	          0.01000128	          0.05743587	          0.01000000	          0.06643196	          0.01000002	          0.00999999	          0.05173855	          0.11239647	          0.00999999	
